<svg width="260" height="260" viewBox="0 0 260 260" fill="none" xmlns="http://www.w3.org/2000/svg">
<rect width="260" height="260" fill="#E1E1E1"/>
<path d="M30.376 151C29.5653 151 28.8613 150.723 28.264 150.168C27.6667 149.571 27.368 148.845 27.368 147.992V104.024C27.368 103.128 27.6453 102.403 28.2 101.848C28.7973 101.293 29.5227 101.016 30.376 101.016H59.752C60.648 101.016 61.352 101.293 61.864 101.848C62.4187 102.36 62.696 103.043 62.696 103.896C62.696 104.664 62.4187 105.325 61.864 105.88C61.352 106.392 60.648 106.648 59.752 106.648H33.384V123.032H52.392C53.288 123.032 54.0133 123.309 54.568 123.864C55.1227 124.376 55.4 125.037 55.4 125.848C55.4 126.659 55.1227 127.341 54.568 127.896C54.0133 128.408 53.288 128.664 52.392 128.664H33.384V147.992C33.384 148.845 33.0853 149.571 32.488 150.168C31.9333 150.723 31.2293 151 30.376 151ZM78.76 151C76.968 151 75.368 150.509 73.96 149.528C72.552 148.547 71.4427 147.203 70.632 145.496C69.864 143.747 69.48 141.741 69.48 139.48V103.896C69.48 103.043 69.736 102.36 70.248 101.848C70.8027 101.293 71.5067 101.016 72.36 101.016C73.256 101.016 73.96 101.293 74.472 101.848C75.0267 102.36 75.304 103.043 75.304 103.896V139.48C75.304 141.144 75.624 142.509 76.264 143.576C76.9467 144.643 77.7787 145.176 78.76 145.176H80.36C81.1707 145.176 81.8107 145.453 82.28 146.008C82.7493 146.52 82.984 147.224 82.984 148.12C82.984 148.973 82.6213 149.677 81.896 150.232C81.2133 150.744 80.3173 151 79.208 151H78.76ZM103.445 151.256C100.031 151.256 96.9805 150.509 94.2925 149.016C91.6472 147.48 89.5565 145.389 88.0205 142.744C86.5272 140.056 85.7805 136.984 85.7805 133.528C85.7805 130.029 86.5272 126.957 88.0205 124.312C89.5565 121.624 91.6472 119.533 94.2925 118.04C96.9805 116.504 100.031 115.736 103.445 115.736C106.858 115.736 109.887 116.504 112.533 118.04C115.221 119.533 117.311 121.624 118.805 124.312C120.341 126.957 121.13 130.029 121.173 133.528C121.173 136.984 120.405 140.056 118.869 142.744C117.333 145.389 115.242 147.48 112.597 149.016C109.951 150.509 106.901 151.256 103.445 151.256ZM103.445 146.008C105.791 146.008 107.861 145.475 109.653 144.408C111.445 143.341 112.853 141.869 113.877 139.992C114.901 138.115 115.413 135.96 115.413 133.528C115.413 131.096 114.901 128.941 113.877 127.064C112.853 125.144 111.445 123.651 109.653 122.584C107.861 121.517 105.791 120.984 103.445 120.984C101.141 120.984 99.0712 121.517 97.2365 122.584C95.4445 123.651 94.0365 125.144 93.0125 127.064C91.9885 128.941 91.4765 131.096 91.4765 133.528C91.4765 135.96 91.9885 138.115 93.0125 139.992C94.0365 141.869 95.4445 143.341 97.2365 144.408C99.0712 145.475 101.141 146.008 103.445 146.008ZM140.789 150.936C139.552 150.936 138.613 150.296 137.973 149.016L124.213 119.832C123.872 119.149 123.829 118.488 124.085 117.848C124.341 117.208 124.853 116.717 125.621 116.376C126.261 116.035 126.922 115.992 127.605 116.248C128.288 116.461 128.8 116.888 129.141 117.528L142.197 145.688H139.317L152.181 117.528C152.522 116.845 153.056 116.397 153.781 116.184C154.506 115.971 155.232 116.013 155.957 116.312C156.64 116.653 157.109 117.165 157.365 117.848C157.621 118.488 157.578 119.128 157.237 119.768L143.541 149.016C142.944 150.296 142.026 150.936 140.789 150.936ZM177.735 151.256C174.535 151.256 171.676 150.488 169.159 148.952C166.641 147.416 164.657 145.304 163.207 142.616C161.756 139.928 161.031 136.899 161.031 133.528C161.031 130.115 161.799 127.085 163.335 124.44C164.913 121.752 167.025 119.64 169.671 118.104C172.359 116.525 175.367 115.736 178.695 115.736C182.065 115.736 185.073 116.525 187.719 118.104C190.364 119.64 192.455 121.752 193.991 124.44C195.569 127.128 196.38 130.157 196.423 133.528L194.119 134.104C194.119 137.347 193.393 140.269 191.943 142.872C190.492 145.475 188.529 147.523 186.055 149.016C183.623 150.509 180.849 151.256 177.735 151.256ZM178.695 146.008C180.999 146.008 183.047 145.475 184.839 144.408C186.631 143.299 188.039 141.805 189.062 139.928C190.129 138.008 190.663 135.875 190.663 133.528C190.663 131.139 190.129 129.005 189.062 127.128C188.039 125.208 186.631 123.715 184.839 122.648C183.047 121.539 180.999 120.984 178.695 120.984C176.476 120.984 174.449 121.539 172.615 122.648C170.78 123.715 169.329 125.208 168.263 127.128C167.239 129.005 166.727 131.139 166.727 133.528C166.727 135.875 167.239 138.008 168.263 139.928C169.329 141.805 170.78 143.299 172.615 144.408C174.449 145.475 176.476 146.008 178.695 146.008ZM193.415 151.064C192.561 151.064 191.857 150.787 191.303 150.232C190.748 149.677 190.471 148.973 190.471 148.12V137.88L191.687 131.736L196.423 133.528V148.12C196.423 148.973 196.124 149.677 195.527 150.232C194.972 150.787 194.268 151.064 193.415 151.064ZM218.617 151.256C215.801 151.256 213.134 150.829 210.617 149.976C208.099 149.08 206.115 147.864 204.665 146.328C204.11 145.688 203.875 144.984 203.961 144.216C204.046 143.448 204.43 142.787 205.113 142.232C205.838 141.677 206.585 141.443 207.353 141.528C208.121 141.613 208.761 141.955 209.273 142.552C210.126 143.491 211.363 144.301 212.985 144.984C214.649 145.667 216.462 146.008 218.425 146.008C221.198 146.008 223.246 145.56 224.569 144.664C225.934 143.725 226.638 142.573 226.681 141.208C226.681 139.8 226.019 138.627 224.697 137.688C223.374 136.707 221.049 135.939 217.721 135.384C213.411 134.573 210.275 133.315 208.312 131.608C206.35 129.901 205.369 127.832 205.369 125.4C205.369 123.224 205.966 121.432 207.161 120.024C208.398 118.573 209.998 117.507 211.961 116.824C213.966 116.099 216.078 115.736 218.297 115.736C221.113 115.736 223.587 116.205 225.721 117.144C227.854 118.04 229.561 119.299 230.841 120.92C231.395 121.56 231.63 122.221 231.545 122.904C231.502 123.587 231.161 124.163 230.521 124.632C229.881 125.016 229.134 125.144 228.281 125.016C227.47 124.888 226.787 124.525 226.233 123.928C225.166 122.819 223.971 122.051 222.649 121.624C221.369 121.155 219.875 120.92 218.169 120.92C216.121 120.92 214.414 121.304 213.049 122.072C211.726 122.84 211.065 123.885 211.065 125.208C211.065 126.061 211.278 126.808 211.705 127.448C212.174 128.088 213.027 128.685 214.265 129.24C215.502 129.752 217.273 130.221 219.577 130.648C222.777 131.245 225.294 132.035 227.129 133.016C229.006 133.997 230.35 135.149 231.161 136.472C231.971 137.795 232.377 139.288 232.377 140.952C232.377 142.915 231.822 144.685 230.713 146.264C229.646 147.8 228.089 149.016 226.041 149.912C223.993 150.808 221.518 151.256 218.617 151.256Z" fill="black"/>
</svg>
